<svg xmlns:inkscape="http://www.inkscape.org/namespaces/inkscape" xmlns:rdf="http://www.w3.org/1999/02/22-rdf-syntax-ns#" xmlns="http://www.w3.org/2000/svg" xmlns:xlink="http://www.w3.org/1999/xlink" xmlns:ns1="http://sozi.baierouge.fr" xmlns:cc="http://creativecommons.org/ns#" xmlns:sodipodi="http://sodipodi.sourceforge.net/DTD/sodipodi-0.dtd" xmlns:dc="http://purl.org/dc/elements/1.1/" id="svg2" xml:space="preserve" viewBox="0 0 53.781 27.855" version="1.1" inkscape:version="0.91 r13725">
  <g id="g10" transform="matrix(1.25 0 0 -1.25 0 27.855)">
    <g id="g12">
      <path id="path14" style="fill-rule:evenodd;fill:#fffbcd" d="m38.062 0.639c-0.824-0.425-1.945-0.64-3.359-0.64-0.426 0.027-2.199 0.148-5.316 0.359-2.403 0.242-4.442 0.75-6.121 1.52-1.813 0.855-2.653 1.789-2.52 2.801 0.133 1.039 1.066 1.851 2.801 2.441 1.812 0.668 4.051 0.879 6.719 0.641 1.386-0.133 2.707-0.481 3.961-1.043 1.304-0.559 2.332-1.266 3.078-2.118 0.718-0.8 1.133-1.601 1.242-2.398 0.105-0.723-0.055-1.242-0.485-1.563z" inkscape:connector-curvature="0"/>
      <path id="path16" style="fill-rule:evenodd;fill:#fffbcd" d="m1.023 6.241c0.856 0.691 1.95 1.211 3.282 1.559 1.359 0.347 2.558 0.441 3.597 0.281 1.043-0.16 1.629-0.508 1.762-1.039 0.133-0.535-0.226-1.11-1.078-1.723-0.828-0.613-1.91-1.094-3.242-1.437-1.332-0.348-2.492-0.481-3.481-0.403-1.011 0.11-1.613 0.426-1.801 0.961-0.21 0.531 0.11 1.133 0.961 1.801z" inkscape:connector-curvature="0"/>
      <path id="path18" style="fill-rule:evenodd;fill:#fffbcd" d="m23.945 12.28c0.16-0.453-0.187-0.906-1.043-1.359-0.879-0.453-1.906-0.668-3.078-0.641s-2.172 0.238-3 0.641c-0.801 0.371-1.172 0.8-1.121 1.281 0.027 0.453 0.453 0.824 1.281 1.117 0.801 0.266 1.758 0.375 2.879 0.32 2.453-0.054 3.813-0.503 4.082-1.359z" inkscape:connector-curvature="0"/>
      <path id="path20" style="fill-rule:evenodd;fill:#fffbcd" d="m9.664 15.319c-0.187-1.066-1.734-1.64-4.641-1.719-1.281-0.054-2.371 0.094-3.281 0.442-0.933 0.316-1.41 0.746-1.437 1.277-0.028 0.535 0.414 1 1.32 1.402 0.906 0.426 2.012 0.665 3.32 0.719 1.305 0.028 2.465-0.187 3.481-0.64 0.957-0.481 1.371-0.973 1.238-1.481z" inkscape:connector-curvature="0"/>
      <path id="path22" style="fill-rule:evenodd;fill:#fffbcd" d="m43.023 14.12c-0.027-0.828-0.839-1.441-2.437-1.84-1.629-0.398-3.441-0.398-5.441 0-2.028 0.399-3.641 0.934-4.84 1.602-1.282 0.718-1.934 1.504-1.961 2.359 0 0.852 0.801 1.492 2.398 1.918 1.656 0.426 3.496 0.441 5.52 0.043 2-0.375 3.629-0.934 4.883-1.684 1.281-0.773 1.906-1.57 1.878-2.398z" inkscape:connector-curvature="0"/>
      <path id="path24" style="fill-rule:evenodd;fill:#fffbcd" d="m19.758 20.858c0.058-0.426-0.289-0.824-1.047-1.191-0.789-0.348-1.727-0.516-2.805-0.504-1.082 0.016-2.008 0.223-2.777 0.625-0.762 0.375-1.106 0.781-1.031 1.215 0.078 0.433 0.488 0.765 1.226 0.988 0.715 0.223 1.586 0.316 2.614 0.289 1.054-0.023 1.933-0.16 2.636-0.414 0.731-0.246 1.125-0.582 1.184-1.008z" inkscape:connector-curvature="0"/>
    </g>
  </g>
</svg>
